<svg xmlns="http://www.w3.org/2000/svg" viewBox="0 0 512 512">
  <defs>
    <linearGradient id="grad" x1="0%" y1="0%" x2="100%" y2="100%">
      <stop offset="0%" style="stop-color:#EC407A;stop-opacity:1" />
      <stop offset="100%" style="stop-color:#C2185B;stop-opacity:1" />
    </linearGradient>
  </defs>
  <rect width="512" height="512" rx="80" fill="url(#grad)"/>
  <path d="M256 120c-44 0-80 36-80 80s36 80 80 80 80-36 80-80-36-80-80-80zm0 140c-33 0-60-27-60-60s27-60 60-60 60 27 60 60-27 60-60 60z" fill="white"/>
  <path d="M256 380c-48 0-88-22-110-55h220c-22 33-62 55-110 55z" fill="white" opacity="0.9"/>
  <circle cx="256" cy="200" r="12" fill="#EC407A"/>
  <circle cx="256" cy="200" r="8" fill="white"/>
</svg>